{
	"asset":{
		"generator":"Khronos glTF Blender I/O v3.6.28",
		"version":"2.0"
	},
	"extensionsUsed":[
		"KHR_materials_specular",
		"KHR_materials_ior"
	],
	"scene":0,
	"scenes":[
		{
			"name":"Scene",
			"nodes":[
				0,
				1,
				2,
				3,
				4,
				5,
				6,
				7,
				8,
				9,
				10,
				11,
				12
			]
		}
	],
	"nodes":[
		{
			"mesh":0,
			"name":"Cube"
		},
		{
			"mesh":1,
			"name":"Object034",
			"scale":[
				0.02539999969303608,
				0.02539999969303608,
				0.02539999969303608
			],
			"translation":[
				37.093448638916016,
				45.51456832885742,
				-22.463348388671875
			]
		},
		{
			"mesh":2,
			"name":"Object036",
			"scale":[
				0.02539999969303608,
				0.02539999969303608,
				0.02539999969303608
			],
			"translation":[
				37.093448638916016,
				45.51456832885742,
				-22.463348388671875
			]
		},
		{
			"mesh":3,
			"name":"Object038",
			"scale":[
				0.02539999969303608,
				0.02539999969303608,
				0.02539999969303608
			],
			"translation":[
				37.093448638916016,
				45.51456832885742,
				-22.463348388671875
			]
		},
		{
			"mesh":4,
			"name":"Object040",
			"scale":[
				0.02539999969303608,
				0.02539999969303608,
				0.02539999969303608
			],
			"translation":[
				37.093448638916016,
				45.51456832885742,
				-22.463348388671875
			]
		},
		{
			"mesh":5,
			"name":"Object042",
			"scale":[
				0.02539999969303608,
				0.02539999969303608,
				0.02539999969303608
			],
			"translation":[
				37.093448638916016,
				45.51456832885742,
				-22.463348388671875
			]
		},
		{
			"mesh":6,
			"name":"Object044",
			"scale":[
				0.02539999969303608,
				0.02539999969303608,
				0.02539999969303608
			],
			"translation":[
				37.093448638916016,
				45.51456832885742,
				-22.463348388671875
			]
		},
		{
			"mesh":7,
			"name":"Object046",
			"scale":[
				0.02539999969303608,
				0.02539999969303608,
				0.02539999969303608
			],
			"translation":[
				37.093448638916016,
				45.51456832885742,
				-22.463348388671875
			]
		},
		{
			"mesh":8,
			"name":"Object048",
			"scale":[
				0.02539999969303608,
				0.02539999969303608,
				0.02539999969303608
			],
			"translation":[
				37.093448638916016,
				45.51456832885742,
				-22.463348388671875
			]
		},
		{
			"mesh":9,
			"name":"Object050",
			"scale":[
				0.02539999969303608,
				0.02539999969303608,
				0.02539999969303608
			],
			"translation":[
				37.093448638916016,
				45.51456832885742,
				-22.463348388671875
			]
		},
		{
			"mesh":10,
			"name":"Object052",
			"scale":[
				0.02539999969303608,
				0.02539999969303608,
				0.02539999969303608
			],
			"translation":[
				37.093448638916016,
				45.51456832885742,
				-22.463348388671875
			]
		},
		{
			"mesh":11,
			"name":"Object054",
			"scale":[
				0.02539999969303608,
				0.02539999969303608,
				0.02539999969303608
			],
			"translation":[
				37.093448638916016,
				45.51456832885742,
				-22.463348388671875
			]
		},
		{
			"mesh":12,
			"name":"Object056",
			"scale":[
				0.02539999969303608,
				0.02539999969303608,
				0.02539999969303608
			],
			"translation":[
				37.093448638916016,
				45.51456832885742,
				-22.463348388671875
			]
		}
	],
	"materials":[
		{
			"doubleSided":true,
			"name":"Material",
			"pbrMetallicRoughness":{
				"baseColorFactor":[
					0.800000011920929,
					0.800000011920929,
					0.800000011920929,
					1
				],
				"metallicFactor":0,
				"roughnessFactor":0.5
			}
		},
		{
			"doubleSided":true,
			"extensions":{
				"KHR_materials_specular":{
					"specularColorFactor":[
						0,
						0,
						0
					]
				},
				"KHR_materials_ior":{
					"ior":1.4500000476837158
				}
			},
			"name":"model_38_default",
			"pbrMetallicRoughness":{
				"baseColorFactor":[
					0.5879999995231628,
					0.5879999995231628,
					0.5879999995231628,
					1
				],
				"roughnessFactor":0.858578622341156
			}
		},
		{
			"doubleSided":true,
			"extensions":{
				"KHR_materials_specular":{
					"specularColorFactor":[
						0,
						0,
						0
					]
				},
				"KHR_materials_ior":{
					"ior":1.4500000476837158
				}
			},
			"name":"03 - Default",
			"pbrMetallicRoughness":{
				"baseColorFactor":[
					0.9960784316062927,
					0.9960784316062927,
					0.9960784316062927,
					1
				],
				"roughnessFactor":0.858578622341156
			}
		},
		{
			"doubleSided":true,
			"extensions":{
				"KHR_materials_specular":{
					"specularColorFactor":[
						0,
						0,
						0
					]
				},
				"KHR_materials_ior":{
					"ior":1.4500000476837158
				}
			},
			"name":"08 - Default",
			"pbrMetallicRoughness":{
				"baseColorFactor":[
					0.5411764979362488,
					0.7372549176216125,
					0.05882352963089943,
					1
				],
				"roughnessFactor":0.858578622341156
			}
		},
		{
			"doubleSided":true,
			"extensions":{
				"KHR_materials_specular":{
					"specularColorFactor":[
						0,
						0,
						0
					]
				},
				"KHR_materials_ior":{
					"ior":1.4500000476837158
				}
			},
			"name":"09 - Default",
			"pbrMetallicRoughness":{
				"baseColorFactor":[
					0.5215686559677124,
					0.33725491166114807,
					0.29019609093666077,
					1
				],
				"roughnessFactor":0.858578622341156
			}
		},
		{
			"doubleSided":true,
			"extensions":{
				"KHR_materials_specular":{
					"specularColorFactor":[
						0,
						0,
						0
					]
				},
				"KHR_materials_ior":{
					"ior":1.4500000476837158
				}
			},
			"name":"model_10_default",
			"pbrMetallicRoughness":{
				"baseColorFactor":[
					0.5879999995231628,
					0.5879999995231628,
					0.5879999995231628,
					1
				],
				"roughnessFactor":0.858578622341156
			}
		},
		{
			"doubleSided":true,
			"extensions":{
				"KHR_materials_specular":{
					"specularColorFactor":[
						0,
						0,
						0
					]
				},
				"KHR_materials_ior":{
					"ior":1.4500000476837158
				}
			},
			"name":"model_11_default",
			"pbrMetallicRoughness":{
				"baseColorFactor":[
					0.5879999995231628,
					0.5879999995231628,
					0.5879999995231628,
					1
				],
				"roughnessFactor":0.858578622341156
			}
		},
		{
			"doubleSided":true,
			"extensions":{
				"KHR_materials_specular":{
					"specularColorFactor":[
						0,
						0,
						0
					]
				},
				"KHR_materials_ior":{
					"ior":1.4500000476837158
				}
			},
			"name":"19 - Default",
			"pbrMetallicRoughness":{
				"baseColorFactor":[
					0.9960784316062927,
					0.6627451181411743,
					0.2549019753932953,
					1
				],
				"roughnessFactor":0.858578622341156
			}
		},
		{
			"doubleSided":true,
			"extensions":{
				"KHR_materials_specular":{
					"specularColorFactor":[
						0,
						0,
						0
					]
				},
				"KHR_materials_ior":{
					"ior":1.4500000476837158
				}
			},
			"name":"model_15_default",
			"pbrMetallicRoughness":{
				"baseColorFactor":[
					0.5879999995231628,
					0.5879999995231628,
					0.5879999995231628,
					1
				],
				"roughnessFactor":0.858578622341156
			}
		},
		{
			"doubleSided":true,
			"extensions":{
				"KHR_materials_specular":{
					"specularColorFactor":[
						0,
						0,
						0
					]
				},
				"KHR_materials_ior":{
					"ior":1.4500000476837158
				}
			},
			"name":"14 - Default",
			"pbrMetallicRoughness":{
				"baseColorFactor":[
					0.9960784316062927,
					0.9960784316062927,
					0.7372549176216125,
					1
				],
				"roughnessFactor":0.858578622341156
			}
		},
		{
			"doubleSided":true,
			"extensions":{
				"KHR_materials_specular":{
					"specularColorFactor":[
						0,
						0,
						0
					]
				},
				"KHR_materials_ior":{
					"ior":1.4500000476837158
				}
			},
			"name":"21 - Default",
			"pbrMetallicRoughness":{
				"baseColorFactor":[
					0.9960784316062927,
					0.9960784316062927,
					0.8196078538894653,
					1
				],
				"roughnessFactor":0.858578622341156
			}
		},
		{
			"doubleSided":true,
			"extensions":{
				"KHR_materials_specular":{
					"specularColorFactor":[
						0,
						0,
						0
					]
				},
				"KHR_materials_ior":{
					"ior":1.4500000476837158
				}
			},
			"name":"07 - Default",
			"pbrMetallicRoughness":{
				"baseColorFactor":[
					0.30980393290519714,
					0.7568627595901489,
					0.9960784316062927,
					1
				],
				"roughnessFactor":0.858578622341156
			}
		}
	],
	"meshes":[
		{
			"name":"Cube",
			"primitives":[
				{
					"attributes":{
						"POSITION":0,
						"NORMAL":1,
						"TEXCOORD_0":2
					},
					"indices":3,
					"material":0
				}
			]
		},
		{
			"name":"Mesh",
			"primitives":[
				{
					"attributes":{
						"POSITION":4,
						"NORMAL":5,
						"TEXCOORD_0":6
					},
					"indices":7,
					"material":1
				}
			]
		},
		{
			"name":"Mesh.001",
			"primitives":[
				{
					"attributes":{
						"POSITION":8,
						"NORMAL":9,
						"TEXCOORD_0":10
					},
					"indices":11,
					"material":2
				}
			]
		},
		{
			"name":"Mesh.002",
			"primitives":[
				{
					"attributes":{
						"POSITION":12,
						"NORMAL":13,
						"TEXCOORD_0":14
					},
					"indices":15,
					"material":3
				}
			]
		},
		{
			"name":"Mesh.003",
			"primitives":[
				{
					"attributes":{
						"POSITION":16,
						"NORMAL":17,
						"TEXCOORD_0":18
					},
					"indices":19,
					"material":4
				}
			]
		},
		{
			"name":"Mesh.004",
			"primitives":[
				{
					"attributes":{
						"POSITION":20,
						"NORMAL":21,
						"TEXCOORD_0":22
					},
					"indices":23,
					"material":5
				}
			]
		},
		{
			"name":"Mesh.005",
			"primitives":[
				{
					"attributes":{
						"POSITION":24,
						"NORMAL":25,
						"TEXCOORD_0":26
					},
					"indices":27,
					"material":6
				}
			]
		},
		{
			"name":"Mesh.006",
			"primitives":[
				{
					"attributes":{
						"POSITION":28,
						"NORMAL":29,
						"TEXCOORD_0":30
					},
					"indices":31,
					"material":7
				}
			]
		},
		{
			"name":"Mesh.007",
			"primitives":[
				{
					"attributes":{
						"POSITION":32,
						"NORMAL":33,
						"TEXCOORD_0":34
					},
					"indices":35,
					"material":8
				}
			]
		},
		{
			"name":"Mesh.008",
			"primitives":[
				{
					"attributes":{
						"POSITION":36,
						"NORMAL":37,
						"TEXCOORD_0":38
					},
					"indices":39,
					"material":2
				}
			]
		},
		{
			"name":"Mesh.009",
			"primitives":[
				{
					"attributes":{
						"POSITION":40,
						"NORMAL":41,
						"TEXCOORD_0":42
					},
					"indices":43,
					"material":9
				}
			]
		},
		{
			"name":"Mesh.010",
			"primitives":[
				{
					"attributes":{
						"POSITION":44,
						"NORMAL":45,
						"TEXCOORD_0":46
					},
					"indices":47,
					"material":10
				}
			]
		},
		{
			"name":"Mesh.011",
			"primitives":[
				{
					"attributes":{
						"POSITION":48,
						"NORMAL":49,
						"TEXCOORD_0":50
					},
					"indices":51,
					"material":11
				}
			]
		}
	],
	"accessors":[
		{
			"bufferView":0,
			"componentType":5126,
			"count":24,
			"max":[
				1,
				1,
				1
			],
			"min":[
				-1,
				-1,
				-1
			],
			"type":"VEC3"
		},
		{
			"bufferView":1,
			"componentType":5126,
			"count":24,
			"type":"VEC3"
		},
		{
			"bufferView":2,
			"componentType":5126,
			"count":24,
			"type":"VEC2"
		},
		{
			"bufferView":3,
			"componentType":5123,
			"count":36,
			"type":"SCALAR"
		},
		{
			"bufferView":4,
			"componentType":5126,
			"count":276,
			"max":[
				1061.873046875,
				4102.0478515625,
				1234.193359375
			],
			"min":[
				-615.53125,
				2368.244140625,
				-442.626953125
			],
			"type":"VEC3"
		},
		{
			"bufferView":5,
			"componentType":5126,
			"count":276,
			"type":"VEC3"
		},
		{
			"bufferView":6,
			"componentType":5126,
			"count":276,
			"type":"VEC2"
		},
		{
			"bufferView":7,
			"componentType":5123,
			"count":276,
			"type":"SCALAR"
		},
		{
			"bufferView":8,
			"componentType":5126,
			"count":3195,
			"max":[
				1780.005859375,
				7239.6494140625,
				746.5556640625
			],
			"min":[
				-1319.306640625,
				4078.02978515625,
				72.1767578125
			],
			"type":"VEC3"
		},
		{
			"bufferView":9,
			"componentType":5126,
			"count":3195,
			"type":"VEC3"
		},
		{
			"bufferView":10,
			"componentType":5126,
			"count":3195,
			"type":"VEC2"
		},
		{
			"bufferView":11,
			"componentType":5123,
			"count":3195,
			"type":"SCALAR"
		},
		{
			"bufferView":12,
			"componentType":5126,
			"count":27510,
			"max":[
				5601.75,
				3876.17919921875,
				6533.03125
			],
			"min":[
				-5941.2294921875,
				-2616.8984375,
				-5910.451171875
			],
			"type":"VEC3"
		},
		{
			"bufferView":13,
			"componentType":5126,
			"count":27510,
			"type":"VEC3"
		},
		{
			"bufferView":14,
			"componentType":5126,
			"count":27510,
			"type":"VEC2"
		},
		{
			"bufferView":15,
			"componentType":5123,
			"count":27690,
			"type":"SCALAR"
		},
		{
			"bufferView":16,
			"componentType":5126,
			"count":7563,
			"max":[
				5177.67578125,
				3219.45751953125,
				6122.48046875
			],
			"min":[
				-5455.890625,
				-2711.37939453125,
				-5532.09375
			],
			"type":"VEC3"
		},
		{
			"bufferView":17,
			"componentType":5126,
			"count":7563,
			"type":"VEC3"
		},
		{
			"bufferView":18,
			"componentType":5126,
			"count":7563,
			"type":"VEC2"
		},
		{
			"bufferView":19,
			"componentType":5123,
			"count":7572,
			"type":"SCALAR"
		},
		{
			"bufferView":20,
			"componentType":5126,
			"count":744,
			"max":[
				4919.396484375,
				-3472.63525390625,
				5896.3115234375
			],
			"min":[
				-5239.556640625,
				-3795.15673828125,
				-5203.505859375
			],
			"type":"VEC3"
		},
		{
			"bufferView":21,
			"componentType":5126,
			"count":744,
			"type":"VEC3"
		},
		{
			"bufferView":22,
			"componentType":5126,
			"count":744,
			"type":"VEC2"
		},
		{
			"bufferView":23,
			"componentType":5123,
			"count":744,
			"type":"SCALAR"
		},
		{
			"bufferView":24,
			"componentType":5126,
			"count":528,
			"max":[
				4919.396484375,
				-2237.6923828125,
				5896.3115234375
			],
			"min":[
				-5244.51953125,
				-3472.63232421875,
				-5203.505859375
			],
			"type":"VEC3"
		},
		{
			"bufferView":25,
			"componentType":5126,
			"count":528,
			"type":"VEC3"
		},
		{
			"bufferView":26,
			"componentType":5126,
			"count":528,
			"type":"VEC2"
		},
		{
			"bufferView":27,
			"componentType":5123,
			"count":528,
			"type":"SCALAR"
		},
		{
			"bufferView":28,
			"componentType":5126,
			"count":2151,
			"max":[
				4919.396484375,
				2318.14208984375,
				5959.861328125
			],
			"min":[
				-5244.51953125,
				-2860.9912109375,
				-5203.505859375
			],
			"type":"VEC3"
		},
		{
			"bufferView":29,
			"componentType":5126,
			"count":2151,
			"type":"VEC3"
		},
		{
			"bufferView":30,
			"componentType":5126,
			"count":2151,
			"type":"VEC2"
		},
		{
			"bufferView":31,
			"componentType":5123,
			"count":2151,
			"type":"SCALAR"
		},
		{
			"bufferView":32,
			"componentType":5126,
			"count":539,
			"max":[
				1972.896484375,
				2740.6591796875,
				1802.5869140625
			],
			"min":[
				-1547.3017578125,
				1703.0169677734375,
				-2911.134765625
			],
			"type":"VEC3"
		},
		{
			"bufferView":33,
			"componentType":5126,
			"count":539,
			"type":"VEC3"
		},
		{
			"bufferView":34,
			"componentType":5126,
			"count":539,
			"type":"VEC2"
		},
		{
			"bufferView":35,
			"componentType":5123,
			"count":540,
			"type":"SCALAR"
		},
		{
			"bufferView":36,
			"componentType":5126,
			"count":69,
			"max":[
				677.1015625,
				4079.50390625,
				715.32421875
			],
			"min":[
				-215.958984375,
				3744.158203125,
				123.3623046875
			],
			"type":"VEC3"
		},
		{
			"bufferView":37,
			"componentType":5126,
			"count":69,
			"type":"VEC3"
		},
		{
			"bufferView":38,
			"componentType":5126,
			"count":69,
			"type":"VEC2"
		},
		{
			"bufferView":39,
			"componentType":5123,
			"count":69,
			"type":"SCALAR"
		},
		{
			"bufferView":40,
			"componentType":5126,
			"count":5280,
			"max":[
				5016.328125,
				-2316.67138671875,
				5983.1923828125
			],
			"min":[
				-5298.427734375,
				-3121.09375,
				-5306.744140625
			],
			"type":"VEC3"
		},
		{
			"bufferView":41,
			"componentType":5126,
			"count":5280,
			"type":"VEC3"
		},
		{
			"bufferView":42,
			"componentType":5126,
			"count":5280,
			"type":"VEC2"
		},
		{
			"bufferView":43,
			"componentType":5123,
			"count":5280,
			"type":"SCALAR"
		},
		{
			"bufferView":44,
			"componentType":5126,
			"count":84,
			"max":[
				1894.044921875,
				2604.4052734375,
				1726.814453125
			],
			"min":[
				-1468.458984375,
				2385.13671875,
				-2835.35546875
			],
			"type":"VEC3"
		},
		{
			"bufferView":45,
			"componentType":5126,
			"count":84,
			"type":"VEC3"
		},
		{
			"bufferView":46,
			"componentType":5126,
			"count":84,
			"type":"VEC2"
		},
		{
			"bufferView":47,
			"componentType":5123,
			"count":84,
			"type":"SCALAR"
		},
		{
			"bufferView":48,
			"componentType":5126,
			"count":2310,
			"max":[
				5100.716796875,
				-2639.901611328125,
				3178.8974609375
			],
			"min":[
				-5358.1767578125,
				-2964.360107421875,
				-3256.908203125
			],
			"type":"VEC3"
		},
		{
			"bufferView":49,
			"componentType":5126,
			"count":2310,
			"type":"VEC3"
		},
		{
			"bufferView":50,
			"componentType":5126,
			"count":2310,
			"type":"VEC2"
		},
		{
			"bufferView":51,
			"componentType":5123,
			"count":3024,
			"type":"SCALAR"
		}
	],
	"bufferViews":[
		{
			"buffer":0,
			"byteLength":288,
			"byteOffset":0,
			"target":34962
		},
		{
			"buffer":0,
			"byteLength":288,
			"byteOffset":288,
			"target":34962
		},
		{
			"buffer":0,
			"byteLength":192,
			"byteOffset":576,
			"target":34962
		},
		{
			"buffer":0,
			"byteLength":72,
			"byteOffset":768,
			"target":34963
		},
		{
			"buffer":0,
			"byteLength":3312,
			"byteOffset":840,
			"target":34962
		},
		{
			"buffer":0,
			"byteLength":3312,
			"byteOffset":4152,
			"target":34962
		},
		{
			"buffer":0,
			"byteLength":2208,
			"byteOffset":7464,
			"target":34962
		},
		{
			"buffer":0,
			"byteLength":552,
			"byteOffset":9672,
			"target":34963
		},
		{
			"buffer":0,
			"byteLength":38340,
			"byteOffset":10224,
			"target":34962
		},
		{
			"buffer":0,
			"byteLength":38340,
			"byteOffset":48564,
			"target":34962
		},
		{
			"buffer":0,
			"byteLength":25560,
			"byteOffset":86904,
			"target":34962
		},
		{
			"buffer":0,
			"byteLength":6390,
			"byteOffset":112464,
			"target":34963
		},
		{
			"buffer":0,
			"byteLength":330120,
			"byteOffset":118856,
			"target":34962
		},
		{
			"buffer":0,
			"byteLength":330120,
			"byteOffset":448976,
			"target":34962
		},
		{
			"buffer":0,
			"byteLength":220080,
			"byteOffset":779096,
			"target":34962
		},
		{
			"buffer":0,
			"byteLength":55380,
			"byteOffset":999176,
			"target":34963
		},
		{
			"buffer":0,
			"byteLength":90756,
			"byteOffset":1054556,
			"target":34962
		},
		{
			"buffer":0,
			"byteLength":90756,
			"byteOffset":1145312,
			"target":34962
		},
		{
			"buffer":0,
			"byteLength":60504,
			"byteOffset":1236068,
			"target":34962
		},
		{
			"buffer":0,
			"byteLength":15144,
			"byteOffset":1296572,
			"target":34963
		},
		{
			"buffer":0,
			"byteLength":8928,
			"byteOffset":1311716,
			"target":34962
		},
		{
			"buffer":0,
			"byteLength":8928,
			"byteOffset":1320644,
			"target":34962
		},
		{
			"buffer":0,
			"byteLength":5952,
			"byteOffset":1329572,
			"target":34962
		},
		{
			"buffer":0,
			"byteLength":1488,
			"byteOffset":1335524,
			"target":34963
		},
		{
			"buffer":0,
			"byteLength":6336,
			"byteOffset":1337012,
			"target":34962
		},
		{
			"buffer":0,
			"byteLength":6336,
			"byteOffset":1343348,
			"target":34962
		},
		{
			"buffer":0,
			"byteLength":4224,
			"byteOffset":1349684,
			"target":34962
		},
		{
			"buffer":0,
			"byteLength":1056,
			"byteOffset":1353908,
			"target":34963
		},
		{
			"buffer":0,
			"byteLength":25812,
			"byteOffset":1354964,
			"target":34962
		},
		{
			"buffer":0,
			"byteLength":25812,
			"byteOffset":1380776,
			"target":34962
		},
		{
			"buffer":0,
			"byteLength":17208,
			"byteOffset":1406588,
			"target":34962
		},
		{
			"buffer":0,
			"byteLength":4302,
			"byteOffset":1423796,
			"target":34963
		},
		{
			"buffer":0,
			"byteLength":6468,
			"byteOffset":1428100,
			"target":34962
		},
		{
			"buffer":0,
			"byteLength":6468,
			"byteOffset":1434568,
			"target":34962
		},
		{
			"buffer":0,
			"byteLength":4312,
			"byteOffset":1441036,
			"target":34962
		},
		{
			"buffer":0,
			"byteLength":1080,
			"byteOffset":1445348,
			"target":34963
		},
		{
			"buffer":0,
			"byteLength":828,
			"byteOffset":1446428,
			"target":34962
		},
		{
			"buffer":0,
			"byteLength":828,
			"byteOffset":1447256,
			"target":34962
		},
		{
			"buffer":0,
			"byteLength":552,
			"byteOffset":1448084,
			"target":34962
		},
		{
			"buffer":0,
			"byteLength":138,
			"byteOffset":1448636,
			"target":34963
		},
		{
			"buffer":0,
			"byteLength":63360,
			"byteOffset":1448776,
			"target":34962
		},
		{
			"buffer":0,
			"byteLength":63360,
			"byteOffset":1512136,
			"target":34962
		},
		{
			"buffer":0,
			"byteLength":42240,
			"byteOffset":1575496,
			"target":34962
		},
		{
			"buffer":0,
			"byteLength":10560,
			"byteOffset":1617736,
			"target":34963
		},
		{
			"buffer":0,
			"byteLength":1008,
			"byteOffset":1628296,
			"target":34962
		},
		{
			"buffer":0,
			"byteLength":1008,
			"byteOffset":1629304,
			"target":34962
		},
		{
			"buffer":0,
			"byteLength":672,
			"byteOffset":1630312,
			"target":34962
		},
		{
			"buffer":0,
			"byteLength":168,
			"byteOffset":1630984,
			"target":34963
		},
		{
			"buffer":0,
			"byteLength":27720,
			"byteOffset":1631152,
			"target":34962
		},
		{
			"buffer":0,
			"byteLength":27720,
			"byteOffset":1658872,
			"target":34962
		},
		{
			"buffer":0,
			"byteLength":18480,
			"byteOffset":1686592,
			"target":34962
		},
		{
			"buffer":0,
			"byteLength":6048,
			"byteOffset":1705072,
			"target":34963
		}
	],
	"buffers":[
		{
			"byteLength":1711120,
			"uri":"test.bin"
		}
	]
}
